 <svg xmlns="http://www.w3.org/2000/svg" width="132" height="132" viewBox="0 0 132 132" fill="none"> <g filter="url(#filter0_di_4967_172702)"> <circle cx="66" cy="62" r="48" fill="white"></circle> </g> <mask id="mask0_4967_172702" style="mask-type:alpha" maskUnits="userSpaceOnUse" x="44" y="35" width="44" height="54"> <path d="M46.0032 84.6536L44.334 40.1754C44.2788 38.7065 45.4052 37.4616 46.8723 37.3699L84.7041 35.0054C86.1975 34.912 87.4837 36.047 87.5771 37.5403C87.5806 37.5966 87.5823 37.6529 87.5823 37.7093V86.1762C87.5823 87.6724 86.3694 88.8854 84.8731 88.8854C84.8326 88.8854 84.7921 88.8845 84.7516 88.8827L48.589 87.2585C47.1806 87.1952 46.0561 86.0624 46.0032 84.6536Z" fill="white"></path> </mask> <g mask="url(#mask0_4967_172702)"> <path d="M46.0032 84.6536L44.334 40.1754C44.2788 38.7065 45.4052 37.4616 46.8723 37.3699L84.7041 35.0054C86.1975 34.912 87.4837 36.047 87.5771 37.5403C87.5806 37.5966 87.5823 37.6529 87.5823 37.7093V86.1762C87.5823 87.6724 86.3694 88.8854 84.8731 88.8854C84.8326 88.8854 84.7921 88.8845 84.7516 88.8827L48.589 87.2585C47.1806 87.1952 46.0561 86.0624 46.0032 84.6536Z" fill="#FF4785"></path> <path d="M76.2696 41.6234L76.528 35.4082L81.7235 35L81.9473 41.4095C81.9551 41.6325 81.7806 41.8197 81.5575 41.8275C81.462 41.8308 81.3684 41.8002 81.2933 41.7411L79.2898 40.1627L76.9177 41.9621C76.7398 42.097 76.4863 42.0622 76.3514 41.8844C76.2947 41.8096 76.2657 41.7173 76.2696 41.6234ZM69.6252 55.3101C69.6252 56.3642 76.725 55.859 77.6781 55.1186C77.6781 47.9408 73.8267 44.169 66.7741 44.169C59.7215 44.169 55.77 47.9995 55.77 53.7453C55.77 63.7525 69.275 63.944 69.275 69.4024C69.275 70.9346 68.5247 71.8444 66.8741 71.8444C64.7233 71.8444 63.873 70.746 63.9731 67.0112C63.9731 66.201 55.77 65.9484 55.5199 67.0112C54.8831 76.0618 60.5218 78.6724 66.9742 78.6724C73.2265 78.6724 78.1283 75.3397 78.1283 69.3067C78.1283 58.5813 64.4232 58.8686 64.4232 53.5537C64.4232 51.3991 66.0238 51.1118 66.9742 51.1118C67.9745 51.1118 69.7752 51.2881 69.6252 55.3101Z" fill="white"></path> </g> <defs> <filter id="filter0_di_4967_172702" x="0" y="0" width="132" height="132" filterUnits="userSpaceOnUse" color-interpolation-filters="sRGB"> <feFlood flood-opacity="0" result="BackgroundImageFix"></feFlood> <feColorMatrix in="SourceAlpha" type="matrix" values="0 0 0 0 0 0 0 0 0 0 0 0 0 0 0 0 0 0 127 0" result="hardAlpha"></feColorMatrix> <feOffset dy="4"></feOffset> <feGaussianBlur stdDeviation="9"></feGaussianBlur> <feColorMatrix type="matrix" values="0 0 0 0 0.575 0 0 0 0 0.575 0 0 0 0 0.575 0 0 0 0.35 0"></feColorMatrix> <feBlend mode="normal" in2="BackgroundImageFix" result="effect1_dropShadow_4967_172702"></feBlend> <feBlend mode="normal" in="SourceGraphic" in2="effect1_dropShadow_4967_172702" result="shape"></feBlend> <feColorMatrix in="SourceAlpha" type="matrix" values="0 0 0 0 0 0 0 0 0 0 0 0 0 0 0 0 0 0 127 0" result="hardAlpha"></feColorMatrix> <feOffset dy="1"></feOffset> <feComposite in2="hardAlpha" operator="arithmetic" k2="-1" k3="1"></feComposite> <feColorMatrix type="matrix" values="0 0 0 0 1 0 0 0 0 1 0 0 0 0 1 0 0 0 0.3 0"></feColorMatrix> <feBlend mode="normal" in2="shape" result="effect2_innerShadow_4967_172702"></feBlend> </filter> </defs> </svg>